<?xml version="1.0" encoding="UTF-8" standalone="no"?>
<svg
   xmlns:dc="http://purl.org/dc/elements/1.1/"
   xmlns:cc="http://creativecommons.org/ns#"
   xmlns:rdf="http://www.w3.org/1999/02/22-rdf-syntax-ns#"
   xmlns:svg="http://www.w3.org/2000/svg"
   xmlns="http://www.w3.org/2000/svg"
   xmlns:sodipodi="http://sodipodi.sourceforge.net/DTD/sodipodi-0.dtd"
   xmlns:inkscape="http://www.inkscape.org/namespaces/inkscape"
   width="164.83553mm"
   height="29.52729mm"
   viewBox="0 0 164.83553 29.52729"
   version="1.1"
   id="svg984"
   inkscape:version="1.0.1 (3bc2e813f5, 2020-09-07)"
   sodipodi:docname="offical BUMN.svg">
  <defs
     id="defs978" />
  <sodipodi:namedview
     id="base"
     pagecolor="#ffffff"
     bordercolor="#666666"
     borderopacity="1.0"
     inkscape:pageopacity="0.0"
     inkscape:pageshadow="2"
     inkscape:zoom="0.98994949"
     inkscape:cx="325.05249"
     inkscape:cy="130.68566"
     inkscape:document-units="mm"
     inkscape:current-layer="layer1"
     inkscape:document-rotation="0"
     showgrid="false"
     fit-margin-top="0"
     fit-margin-left="0"
     fit-margin-right="0"
     fit-margin-bottom="0"
     inkscape:window-width="1366"
     inkscape:window-height="728"
     inkscape:window-x="0"
     inkscape:window-y="0"
     inkscape:window-maximized="0" />
  <metadata
     id="metadata981">
    <rdf:RDF>
      <cc:Work
         rdf:about="">
        <dc:format>image/svg+xml</dc:format>
        <dc:type
           rdf:resource="http://purl.org/dc/dcmitype/StillImage" />
        <dc:title></dc:title>
      </cc:Work>
    </rdf:RDF>
  </metadata>
  <g
     inkscape:label="Lapis 1"
     inkscape:groupmode="layer"
     id="layer1"
     transform="translate(18.91776,-128.86731)">
    <g
       id="g1591">
      <path
         d="m 21.8467,158.30947 c -4.78649,0 -8.680805,-3.89431 -8.680805,-8.68115 v -20.76098 h 5.282849 v 20.76098 c 0,1.8736 1.524,3.3983 3.397956,3.3983 1.873954,0 3.398308,-1.5247 3.398308,-3.3983 v -20.76098 h 5.282846 v 20.76098 c 0,4.78684 -3.894312,8.68115 -8.681154,8.68115"
         style="fill:#1c2954;fill-opacity:1;fill-rule:nonzero;stroke:none;stroke-width:0.352777"
         id="path38" />
      <path
         d="m 73.934549,128.86731 c 4.786487,0 8.680801,3.89467 8.680801,8.68151 v 20.76062 h -5.282847 v -20.76062 c 0,-1.87396 -1.524,-3.39831 -3.397954,-3.39831 -1.873957,0 -3.398663,1.52435 -3.398663,3.39831 v 20.76062 H 65.25304 v -20.76062 c 0,-4.78684 3.894315,-8.68151 8.681509,-8.68151"
         style="fill:#25a0ab;fill-opacity:1;fill-rule:nonzero;stroke:none;stroke-width:0.352777"
         id="path40" />
      <path
         d="m 10.524367,137.54896 c 0,-4.78684 -3.894314,-8.68151 -8.681508,-8.68151 H -18.91776 v 5.28285 H 1.842859 c 1.873955,0 3.398661,1.5247 3.398661,3.39866 0,1.87395 -1.524706,3.39795 -3.398661,3.39795 H -18.91776 v 3.5e-4 5.28214 7.1e-4 H 1.842859 c 1.873955,0 3.398661,1.52471 3.398661,3.39831 0,1.87431 -1.524706,3.39831 -3.398661,3.39831 H -18.91776 v 5.28285 H 1.842859 c 4.787194,0 8.681508,-3.89432 8.681508,-8.68116 0,-2.34703 -0.940152,-4.47569 -2.458508,-6.03991 1.518356,-1.56386 2.458508,-3.69287 2.458508,-6.03955"
         style="fill:#1c2954;fill-opacity:1;fill-rule:nonzero;stroke:none;stroke-width:0.352777"
         id="path42" />
      <path
         d="m 53.930779,128.86731 c -2.347032,0 -4.476044,0.94015 -6.04026,2.45886 -1.563865,-1.51871 -3.69288,-2.45886 -6.039557,-2.45886 -4.787193,0 -8.681508,3.89467 -8.681508,8.68151 v 20.76062 h 5.2832 v -20.76062 c 0,-1.87396 1.524352,-3.39831 3.398308,-3.39831 1.873957,0 3.397957,1.52435 3.397957,3.39831 v 20.76062 h 2.64e-4 5.282494 2.64e-4 v -20.76062 c 0,-1.87396 1.524704,-3.39831 3.398661,-3.39831 1.873956,0 3.397956,1.52435 3.397956,3.39831 v 20.76062 h 5.282845 v -20.76062 c 1.78e-4,-4.78684 -3.894134,-8.68151 -8.680624,-8.68151"
         style="fill:#25a0ab;fill-opacity:1;fill-rule:nonzero;stroke:none;stroke-width:0.352777"
         id="path44" />
    </g>
    <g
       id="g1607">
      <path
         d="m 91.22203,145.8985 c 0.2406,0 0.45579,-0.0399 0.64488,-0.11959 0.18944,-0.0797 0.34961,-0.19403 0.48084,-0.34255 0.13088,-0.14852 0.23072,-0.32984 0.29986,-0.54433 0.0691,-0.21379 0.10336,-0.4572 0.10336,-0.72955 v -4.58223 h 1.79458 v 4.58223 c 0,0.47414 -0.0769,0.90911 -0.23107,1.30563 -0.15345,0.39653 -0.37394,0.73837 -0.66075,1.02518 -0.28681,0.28645 -0.63535,0.50941 -1.04598,0.66851 -0.41064,0.1591 -0.87242,0.23918 -1.38572,0.23918 -0.51681,0 -0.98072,-0.0801 -1.391,-0.23918 -0.41063,-0.1591 -0.75918,-0.38206 -1.04598,-0.66851 -0.28681,-0.28681 -0.50624,-0.62865 -0.65829,-1.02518 -0.1524,-0.39652 -0.22824,-0.83149 -0.22824,-1.30563 v -4.58223 h 1.79458 v 4.57659 c 0,0.2727 0.0346,0.51576 0.10336,0.73025 0.0688,0.21378 0.16898,0.39652 0.30021,0.5468 0.13088,0.15029 0.29069,0.26529 0.48013,0.34502 0.18945,0.0797 0.40464,0.11959 0.64523,0.11959"
         style="fill:#1c2954;fill-opacity:1;fill-rule:nonzero;stroke:none;stroke-width:0.352777"
         id="path46" />
      <path
         d="m 96.85512,139.59087 c 0.0529,0.007 0.10054,0.0208 0.14323,0.0399 0.0423,0.0198 0.0832,0.0469 0.12206,0.0822 0.0392,0.0356 0.0833,0.0833 0.13264,0.14358 l 3.67418,4.64573 c -0.0141,-0.14887 -0.0247,-0.2928 -0.0318,-0.43321 -0.007,-0.13935 -0.0109,-0.27129 -0.0109,-0.39546 v -4.09328 h 1.58256 v 7.73535 h -0.93451 c -0.13794,0 -0.2547,-0.0212 -0.35066,-0.0635 -0.0953,-0.0423 -0.18768,-0.11994 -0.27587,-0.23353 l -3.64738,-4.60834 c 0.0106,0.13441 0.019,0.26599 0.0265,0.39546 0.007,0.12912 0.0109,0.25048 0.0109,0.36372 v 4.14619 h -1.58256 v -7.73535 h 0.94509 c 0.078,0 0.14358,0.004 0.1965,0.0106"
         style="fill:#1c2954;fill-opacity:1;fill-rule:nonzero;stroke:none;stroke-width:0.352777"
         id="path48" />
      <path
         d="m 109.35855,139.58018 v 1.42311 h -2.17699 v 6.3126 h -1.79458 v -6.3126 h -2.17664 v -1.42311 z"
         style="fill:#1c2954;fill-opacity:1;fill-rule:nonzero;stroke:none;stroke-width:0.352777"
         id="path50" />
      <path
         d="m 113.31905,145.8985 c 0.24059,0 0.45579,-0.0399 0.64523,-0.11959 0.18944,-0.0797 0.34925,-0.19403 0.48048,-0.34255 0.13088,-0.14852 0.23107,-0.32984 0.29986,-0.54433 0.0691,-0.21379 0.10372,-0.4572 0.10372,-0.72955 v -4.58223 h 1.79458 v 4.58223 c 0,0.47414 -0.0773,0.90911 -0.23107,1.30563 -0.15381,0.39653 -0.3743,0.73837 -0.66111,1.02518 -0.28645,0.28645 -0.63535,0.50941 -1.04563,0.66851 -0.41099,0.1591 -0.87277,0.23918 -1.38606,0.23918 -0.51647,0 -0.98037,-0.0801 -1.39101,-0.23918 -0.41028,-0.1591 -0.75917,-0.38206 -1.04563,-0.66851 -0.28681,-0.28681 -0.50659,-0.62865 -0.65864,-1.02518 -0.1524,-0.39652 -0.22824,-0.83149 -0.22824,-1.30563 v -4.58223 h 1.79493 v 4.57659 c 0,0.2727 0.0342,0.51576 0.10301,0.73025 0.0692,0.21378 0.16898,0.39652 0.30022,0.5468 0.13088,0.15029 0.29104,0.26529 0.48048,0.34502 0.18909,0.0797 0.40428,0.11959 0.64488,0.11959"
         style="fill:#1c2954;fill-opacity:1;fill-rule:nonzero;stroke:none;stroke-width:0.352777"
         id="path52" />
      <path
         d="m 119.6053,142.71281 h 0.28646 c 0.26564,0 0.45684,-0.0829 0.57361,-0.24941 l 1.74166,-2.5273 c 0.0953,-0.13829 0.20426,-0.23178 0.32597,-0.28152 0.12242,-0.0494 0.27199,-0.0744 0.44873,-0.0744 h 1.56105 l -2.29341,3.12738 c -0.0815,0.11324 -0.16686,0.20708 -0.25506,0.28116 -0.0885,0.0744 -0.17886,0.13653 -0.27058,0.18627 0.13441,0.049 0.25753,0.11783 0.369,0.20426 0.11148,0.0868 0.21308,0.20249 0.30516,0.34748 l 2.33609,3.58916 h -1.60337 c -0.10266,0 -0.19015,-0.007 -0.26282,-0.0215 -0.0727,-0.0138 -0.13547,-0.0349 -0.18874,-0.0635 -0.0529,-0.0279 -0.0988,-0.0624 -0.13793,-0.10336 -0.0388,-0.0406 -0.0759,-0.0875 -0.11148,-0.14076 l -1.7519,-2.69169 c -0.0638,-0.0991 -0.14428,-0.16898 -0.24165,-0.20955 -0.0974,-0.0409 -0.22895,-0.0614 -0.39582,-0.0614 h -0.43497 v 3.29177 h -1.79458 v -7.73572 h 1.79458 z"
         style="fill:#1c2954;fill-opacity:1;fill-rule:nonzero;stroke:none;stroke-width:0.352777"
         id="path54" />
      <path
         d="m 87.89855,158.30958 h 1.80517 v -7.73571 h -1.80517 z"
         style="fill:#1c2954;fill-opacity:1;fill-rule:nonzero;stroke:none;stroke-width:0.352777"
         id="path56" />
      <path
         d="m 92.27882,150.58417 c 0.0529,0.007 0.10054,0.0205 0.14322,0.0399 0.0423,0.0198 0.0829,0.0469 0.12206,0.0825 0.0392,0.0353 0.0833,0.0833 0.13265,0.14322 l 3.67418,4.64573 c -0.0145,-0.14887 -0.0251,-0.2928 -0.0321,-0.43285 -0.007,-0.1397 -0.0106,-0.27164 -0.0106,-0.39547 v -4.09328 h 1.58221 v 7.73536 h -0.93451 c -0.13758,0 -0.25435,-0.0212 -0.3503,-0.0635 -0.0952,-0.0423 -0.18768,-0.1203 -0.27623,-0.23389 l -3.64702,-4.60834 c 0.0106,0.13441 0.0191,0.26635 0.0265,0.39547 0.007,0.12911 0.0106,0.25047 0.0106,0.36371 v 4.14655 h -1.58221 v -7.73536 h 0.94509 c 0.078,0 0.14323,0.003 0.1965,0.0102"
         style="fill:#1c2954;fill-opacity:1;fill-rule:nonzero;stroke:none;stroke-width:0.352777"
         id="path58" />
      <path
         d="m 104.34664,154.4389 c 0,-0.38241 -0.0494,-0.72743 -0.14852,-1.0354 -0.0991,-0.30798 -0.24165,-0.56868 -0.42757,-0.78317 -0.18591,-0.21414 -0.41345,-0.37853 -0.68227,-0.49389 -0.26917,-0.115 -0.57538,-0.17215 -0.91828,-0.17215 h -1.1998 v 4.97487 h 1.1998 c 0.3429,0 0.64911,-0.0575 0.91828,-0.17286 0.26882,-0.11501 0.49636,-0.2794 0.68227,-0.49389 0.18592,-0.21414 0.32844,-0.47519 0.42757,-0.78282 0.0991,-0.30797 0.14852,-0.65475 0.14852,-1.04069 m 1.83691,0 c 0,0.55915 -0.0963,1.07527 -0.28928,1.54763 -0.19297,0.47273 -0.4646,0.8816 -0.81491,1.22626 -0.35031,0.34537 -0.77223,0.61419 -1.26612,0.80716 -0.49389,0.19297 -1.0414,0.28963 -1.64324,0.28963 h -3.00496 v -7.73571 H 102.17 c 0.60184,0 1.14935,0.097 1.64324,0.29174 0.49389,0.19474 0.91581,0.46391 1.26612,0.80716 0.35031,0.3436 0.62194,0.75106 0.81491,1.22378 0.19297,0.47273 0.28928,0.98672 0.28928,1.54235"
         style="fill:#1c2954;fill-opacity:1;fill-rule:nonzero;stroke:none;stroke-width:0.352777"
         id="path60" />
      <path
         d="m 112.84121,154.4389 c 0,-0.38241 -0.0494,-0.72637 -0.14852,-1.03258 -0.0991,-0.30621 -0.24165,-0.5655 -0.42722,-0.77823 -0.18626,-0.21202 -0.41345,-0.375 -0.68227,-0.48824 -0.26917,-0.11289 -0.57538,-0.16969 -0.91863,-0.16969 -0.34678,0 -0.65581,0.0568 -0.9264,0.16969 -0.27057,0.11324 -0.49917,0.27622 -0.68509,0.48824 -0.18556,0.21273 -0.32843,0.47202 -0.42721,0.77823 -0.0991,0.30621 -0.14887,0.65017 -0.14887,1.03258 0,0.38594 0.0497,0.73166 0.14887,1.03787 0.0988,0.30656 0.24165,0.5655 0.42721,0.77752 0.18592,0.21273 0.41452,0.37465 0.68509,0.48613 0.27059,0.11183 0.57962,0.16722 0.9264,0.16722 0.34325,0 0.64946,-0.0554 0.91863,-0.16722 0.26882,-0.11148 0.49601,-0.2734 0.68227,-0.48613 0.18557,-0.21202 0.32809,-0.47096 0.42722,-0.77752 0.0991,-0.30621 0.14852,-0.65193 0.14852,-1.03787 m 1.83726,0 c 0,0.55915 -0.0967,1.0795 -0.28927,1.56104 -0.19333,0.48119 -0.46461,0.89994 -0.81492,1.25554 -0.35066,0.3556 -0.77258,0.63429 -1.26647,0.83608 -0.49389,0.20214 -1.0414,0.30304 -1.64324,0.30304 -0.60184,0 -1.15041,-0.1009 -1.64571,-0.30304 -0.49565,-0.20179 -0.91969,-0.48048 -1.27141,-0.83608 -0.35243,-0.3556 -0.62512,-0.77435 -0.81774,-1.25554 -0.19332,-0.48154 -0.28963,-1.00189 -0.28963,-1.56104 0,-0.55915 0.0963,-1.07985 0.28963,-1.56104 0.19262,-0.48119 0.46531,-0.89888 0.81774,-1.25307 0.35172,-0.35348 0.77576,-0.63182 1.27141,-0.83361 0.4953,-0.20144 1.04387,-0.30233 1.64571,-0.30233 0.60184,0 1.14935,0.10195 1.64324,0.30515 0.49389,0.20355 0.91581,0.48225 1.26647,0.83644 0.35031,0.35383 0.62159,0.77152 0.81492,1.25271 0.19261,0.48119 0.28927,1.00012 0.28927,1.55575"
         style="fill:#1c2954;fill-opacity:1;fill-rule:nonzero;stroke:none;stroke-width:0.352777"
         id="path62" />
      <path
         d="m 116.67975,150.58417 c 0.0533,0.007 0.10089,0.0205 0.14358,0.0399 0.0423,0.0198 0.0829,0.0469 0.12171,0.0825 0.0392,0.0353 0.0833,0.0833 0.13264,0.14322 l 3.67418,4.64573 c -0.0141,-0.14887 -0.0247,-0.2928 -0.0318,-0.43285 -0.007,-0.1397 -0.0109,-0.27164 -0.0109,-0.39547 v -4.09328 h 1.58256 v 7.73536 h -0.93448 c -0.13794,0 -0.25471,-0.0212 -0.35031,-0.0635 -0.0956,-0.0423 -0.18768,-0.1203 -0.27622,-0.23389 l -3.64738,-4.60834 c 0.0106,0.13441 0.019,0.26635 0.0264,0.39547 0.007,0.12911 0.0109,0.25047 0.0109,0.36371 v 4.14655 h -1.58256 v -7.73536 h 0.94509 c 0.078,0 0.14358,0.003 0.1965,0.0102"
         style="fill:#1c2954;fill-opacity:1;fill-rule:nonzero;stroke:none;stroke-width:0.352777"
         id="path64" />
      <path
         d="m 128.54603,150.57383 v 1.38042 h -3.175 v 1.80481 h 2.4317 v 1.3275 h -2.4317 v 1.84256 h 3.175 v 1.38042 h -4.98016 v -7.73571 z"
         style="fill:#1c2954;fill-opacity:1;fill-rule:nonzero;stroke:none;stroke-width:0.352777"
         id="path66" />
      <path
         d="m 133.87647,152.14514 c -0.0529,0.085 -0.10901,0.14887 -0.16722,0.1912 -0.0586,0.0423 -0.1337,0.0639 -0.22578,0.0639 -0.0815,0 -0.16898,-0.0258 -0.26282,-0.0773 -0.0938,-0.0515 -0.19967,-0.10865 -0.31856,-0.17215 -0.11853,-0.0639 -0.25364,-0.12136 -0.40604,-0.17286 -0.15205,-0.0512 -0.32562,-0.0766 -0.52035,-0.0766 -0.3362,0 -0.58632,0.0716 -0.75106,0.21484 -0.16475,0.14323 -0.2473,0.3369 -0.2473,0.58102 0,0.15628 0.0497,0.28505 0.14887,0.38806 0.0991,0.10231 0.22931,0.19085 0.39017,0.26529 0.16122,0.0744 0.34537,0.14217 0.5521,0.20426 0.20743,0.0621 0.41875,0.13123 0.63465,0.20708 0.2159,0.0762 0.42721,0.1658 0.63429,0.26811 0.20708,0.10266 0.39158,0.23354 0.55245,0.39264 0.16087,0.15946 0.29104,0.35348 0.39017,0.58173 0.0991,0.22825 0.14852,0.50341 0.14852,0.82515 0,0.35807 -0.0617,0.69215 -0.18591,1.004 -0.12383,0.31151 -0.30339,0.58279 -0.53869,0.81492 -0.23531,0.23178 -0.52564,0.41381 -0.87066,0.5468 -0.34537,0.13265 -0.73695,0.19933 -1.17616,0.19933 -0.24095,0 -0.48577,-0.0251 -0.73519,-0.0744 -0.24941,-0.0501 -0.49142,-0.1196 -0.7246,-0.20991 -0.23354,-0.0903 -0.45332,-0.1972 -0.65829,-0.32138 -0.20531,-0.12382 -0.38417,-0.26176 -0.53622,-0.41416 l 0.53058,-0.83855 c 0.0388,-0.0635 0.0938,-0.11501 0.16475,-0.15381 0.0705,-0.0395 0.14675,-0.0586 0.22824,-0.0586 0.10619,0 0.21343,0.0335 0.32103,0.10089 0.1083,0.067 0.23001,0.14111 0.36654,0.22296 0.13617,0.0811 0.2928,0.15557 0.4699,0.22295 0.17674,0.067 0.38558,0.1009 0.62653,0.1009 0.32526,0 0.57856,-0.0716 0.75918,-0.2152 0.18027,-0.14323 0.27058,-0.37041 0.27058,-0.68227 0,-0.18062 -0.0494,-0.32738 -0.14852,-0.44062 -0.0991,-0.11324 -0.22931,-0.20708 -0.39017,-0.28116 -0.16122,-0.0744 -0.34431,-0.14006 -0.54963,-0.1965 -0.20532,-0.0568 -0.41593,-0.11959 -0.63183,-0.18838 -0.21554,-0.0692 -0.4265,-0.15417 -0.63182,-0.25506 -0.20532,-0.1009 -0.38841,-0.23389 -0.54963,-0.39864 -0.16087,-0.16404 -0.29104,-0.36936 -0.39017,-0.6156 -0.0991,-0.24588 -0.14852,-0.54927 -0.14852,-0.91052 0,-0.28998 0.0582,-0.57326 0.17498,-0.84949 0.11712,-0.27587 0.28857,-0.52175 0.51541,-0.73801 0.22613,-0.21554 0.50412,-0.38805 0.83361,-0.51752 0.32879,-0.12912 0.70591,-0.19368 1.13065,-0.19368 0.23707,0 0.46779,0.0183 0.69286,0.0557 0.22472,0.037 0.4378,0.0921 0.63994,0.1644 0.20143,0.0727 0.39017,0.15945 0.5655,0.25999 0.17498,0.1009 0.33161,0.2152 0.4699,0.3429 z"
         style="fill:#1c2954;fill-opacity:1;fill-rule:nonzero;stroke:none;stroke-width:0.352777"
         id="path68" />
      <path
         d="m 135.4798,158.30958 h 1.80517 v -7.73571 h -1.80517 z"
         style="fill:#1c2954;fill-opacity:1;fill-rule:nonzero;stroke:none;stroke-width:0.352777"
         id="path70" />
      <path
         d="m 140.94818,155.35217 h 2.11314 l -0.7112,-2.11843 c -0.0462,-0.13476 -0.10019,-0.29281 -0.16193,-0.47554 -0.0621,-0.18204 -0.12312,-0.37959 -0.18309,-0.59161 -0.0568,0.2159 -0.11536,0.41592 -0.17533,0.59972 -0.0603,0.18415 -0.11712,0.3436 -0.17004,0.47801 z m 4.96958,2.95734 h -1.391 c -0.15593,0 -0.28399,-0.0367 -0.38489,-0.10901 -0.10089,-0.0727 -0.17109,-0.16546 -0.2099,-0.27905 l -0.45614,-1.34796 h -2.94181 l -0.4565,1.34796 c -0.0353,0.0991 -0.10442,0.18874 -0.20708,0.26847 -0.10266,0.0797 -0.22824,0.11959 -0.37676,0.11959 h -1.40159 l 2.99438,-7.73571 h 1.83691 z"
         style="fill:#1c2954;fill-opacity:1;fill-rule:nonzero;stroke:none;stroke-width:0.352777"
         id="path72" />
    </g>
  </g>
</svg>
